<svg viewBox="0 0 24 24" fill="none" xmlns="http://www.w3.org/2000/svg">
<g id="24 / Exit">
<path id="Shape" fill-rule="evenodd" clip-rule="evenodd" d="M11 3C13.7614 3 16 5.23858 16 8C16 8.55228 15.5523 9 15 9C14.4872 9 14.0645 8.61396 14.0067 8.11662L14 8C14 6.40232 12.7511 5.09634 11.1763 5.00509L11 5H9C7.40232 5 6.09634 6.24892 6.00509 7.82373L6 8V16C6 17.5977 7.24892 18.9037 8.82373 18.9949L9 19H11C12.5977 19 13.9037 17.7511 13.9949 16.1763L14 16C14 15.4477 14.4477 15 15 15C15.5523 15 16 15.4477 16 16C16 18.6888 13.8777 20.8818 11.2169 20.9954L11 21H9C6.31125 21 4.11818 18.8777 4.00462 16.2169L4 16V8C4 5.31125 6.12231 3.11818 8.78311 3.00462L9 3H11ZM19.6129 9.2097L19.7071 9.29289L21.7071 11.2929C21.7425 11.3283 21.7747 11.3657 21.8037 11.4047L21.8753 11.5159L21.9288 11.6287L21.9642 11.734L21.9931 11.8819L22 12L21.9972 12.0752L21.9798 12.2007L21.9503 12.3121L21.9063 12.4232L21.854 12.5207L21.7803 12.6254L21.7071 12.7071L19.7071 14.7071C19.3166 15.0976 18.6834 15.0976 18.2929 14.7071C17.9324 14.3466 17.9047 13.7794 18.2097 13.3871L18.2929 13.2929L18.584 13H13C12.4477 13 12 12.5523 12 12C12 11.4872 12.386 11.0645 12.8834 11.0067L13 11H18.585L18.2929 10.7071C17.9324 10.3466 17.9047 9.77939 18.2097 9.3871L18.2929 9.29289C18.6534 8.93241 19.2206 8.90468 19.6129 9.2097Z" fill="currentColor"/>
</g>
</svg>
