<svg viewBox="0 0 22 26" fill="none" xmlns="http://www.w3.org/2000/svg">
<g id="Frame 2043682939">
<g id="MessageBubble Mini">
<g id="Union">
<mask id="path-1-inside-1_677_2757" fill="white">
<path fill-rule="evenodd" clip-rule="evenodd" d="M21.2195 12.2823C21.2195 11.1976 21.151 8.3091 21.0436 7.56332C20.6724 4.98481 18.3093 4.13638 16.0775 3.963C14.4339 3.83531 12.7497 3.71289 10.6098 3.71289C8.46981 3.71289 6.78561 3.83531 5.14205 3.963C2.9102 4.13638 0.547114 4.98481 0.1759 7.56331C0.0685345 8.3091 5.99092e-06 11.1976 5.94351e-06 12.2823C5.91323e-06 12.975 0.0279542 14.4034 0.0761177 15.5396L0 15.5469L0.0775112 15.5722C0.104518 16.201 0.137757 16.7364 0.175897 17.0013C0.547108 19.5798 2.91022 20.4283 5.14208 20.6016C6.78564 20.7293 8.46982 20.8517 10.6098 20.8517C12.534 20.8517 14.0898 20.7527 15.5788 20.64L21.2195 22.484V13.5065L21.2045 13.508C21.2143 13.0175 21.2195 12.5813 21.2195 12.2823Z"/>
</mask>
<path fill-rule="evenodd" clip-rule="evenodd" d="M21.2195 12.2823C21.2195 11.1976 21.151 8.3091 21.0436 7.56332C20.6724 4.98481 18.3093 4.13638 16.0775 3.963C14.4339 3.83531 12.7497 3.71289 10.6098 3.71289C8.46981 3.71289 6.78561 3.83531 5.14205 3.963C2.9102 4.13638 0.547114 4.98481 0.1759 7.56331C0.0685345 8.3091 5.99092e-06 11.1976 5.94351e-06 12.2823C5.91323e-06 12.975 0.0279542 14.4034 0.0761177 15.5396L0 15.5469L0.0775112 15.5722C0.104518 16.201 0.137757 16.7364 0.175897 17.0013C0.547108 19.5798 2.91022 20.4283 5.14208 20.6016C6.78564 20.7293 8.46982 20.8517 10.6098 20.8517C12.534 20.8517 14.0898 20.7527 15.5788 20.64L21.2195 22.484V13.5065L21.2045 13.508C21.2143 13.0175 21.2195 12.5813 21.2195 12.2823Z" fill="white"/>
<path d="M21.0436 7.56332L22.0682 7.41582V7.41582L21.0436 7.56332ZM16.0775 3.963L16.1576 2.93101H16.1576L16.0775 3.963ZM10.6098 3.71289V2.67779V3.71289ZM5.14205 3.963L5.06187 2.93101L5.14205 3.963ZM0.1759 7.56331L-0.848635 7.41582L-0.848635 7.41582L0.1759 7.56331ZM5.94351e-06 12.2823H-1.03509H5.94351e-06ZM0.0761177 15.5396L0.175195 16.5699L1.15184 16.476L1.11029 15.4957L0.0761177 15.5396ZM0 15.5469L-0.0990776 14.5165L-0.321644 16.5307L0 15.5469ZM0.0775112 15.5722L1.11166 15.5278L1.08088 14.8112L0.399155 14.5884L0.0775112 15.5722ZM0.175897 17.0013L-0.848639 17.1488L-0.848639 17.1488L0.175897 17.0013ZM5.14208 20.6016L5.06191 21.6336H5.06192L5.14208 20.6016ZM15.5788 20.64L15.9005 19.6561L15.7054 19.5923L15.5007 19.6078L15.5788 20.64ZM21.2195 22.484L20.8979 23.4679L22.2546 23.9114V22.484H21.2195ZM21.2195 13.5065H22.2546V12.3671L21.1204 12.4762L21.2195 13.5065ZM21.2045 13.508L20.1696 13.4873L20.1464 14.6496L21.3036 14.5383L21.2045 13.508ZM20.0191 7.71081C20.0628 8.01424 20.1061 8.8576 20.1373 9.82897C20.1676 10.7727 20.1844 11.7543 20.1844 12.2823H22.2546C22.2546 11.7256 22.2372 10.7207 22.2064 9.76249C22.1765 8.83198 22.1318 7.85818 22.0682 7.41582L20.0191 7.71081ZM15.9973 4.99499C17.0315 5.07533 17.999 5.30775 18.7212 5.74609C19.4027 6.15977 19.8823 6.76088 20.0191 7.71081L22.0682 7.41582C21.8337 5.78724 20.9461 4.67489 19.7954 3.97639C18.6852 3.30254 17.3553 3.02405 16.1576 2.93101L15.9973 4.99499ZM10.6098 4.74799C12.7078 4.74799 14.359 4.86771 15.9973 4.99499L16.1576 2.93101C14.5088 2.80292 12.7917 2.67779 10.6098 2.67779V4.74799ZM5.22222 4.99499C6.86052 4.86771 8.51176 4.74799 10.6098 4.74799V2.67779C8.42786 2.67779 6.7107 2.80292 5.06187 2.93101L5.22222 4.99499ZM1.20044 7.71081C1.33719 6.76088 1.81679 6.15977 2.49833 5.74609C3.22049 5.30775 4.188 5.07533 5.22222 4.99499L5.06187 2.93101C3.86425 3.02405 2.5343 3.30254 1.42415 3.97639C0.273373 4.67489 -0.614178 5.78724 -0.848635 7.41582L1.20044 7.71081ZM1.0351 12.2823C1.0351 11.7543 1.05194 10.7727 1.08226 9.82897C1.11346 8.8576 1.15675 8.01423 1.20044 7.71081L-0.848635 7.41582C-0.912319 7.85818 -0.956976 8.83198 -0.986873 9.76249C-1.01766 10.7207 -1.03509 11.7256 -1.03509 12.2823H1.0351ZM1.11029 15.4957C1.06268 14.3727 1.0351 12.959 1.0351 12.2823H-1.03509C-1.03509 12.991 -1.00677 14.4341 -0.958051 15.5834L1.11029 15.4957ZM0.0990776 16.5772L0.175195 16.5699L-0.02296 14.5092L-0.0990776 14.5165L0.0990776 16.5772ZM0.399155 14.5884L0.321644 14.563L-0.321644 16.5307L-0.244132 16.5561L0.399155 14.5884ZM1.20043 16.8538C1.17101 16.6494 1.13913 16.1674 1.11166 15.5278L-0.956633 15.6166C-0.930091 16.2346 -0.895493 16.8233 -0.848639 17.1488L1.20043 16.8538ZM5.22225 19.5696C4.18803 19.4893 3.2205 19.2569 2.49834 18.8185C1.81679 18.4049 1.33719 17.8037 1.20043 16.8538L-0.848639 17.1488C-0.614183 18.7774 0.273375 19.8897 1.42416 20.5882C2.53432 21.2621 3.86428 21.5406 5.06191 21.6336L5.22225 19.5696ZM10.6098 19.8166C8.51177 19.8166 6.86054 19.6969 5.22225 19.5696L5.06192 21.6336C6.71074 21.7617 8.42788 21.8868 10.6098 21.8868V19.8166ZM15.5007 19.6078C14.0224 19.7198 12.4962 19.8166 10.6098 19.8166V21.8868C12.5719 21.8868 14.1572 21.7857 15.657 21.6721L15.5007 19.6078ZM21.5412 21.5002L15.9005 19.6561L15.2572 21.6238L20.8979 23.4679L21.5412 21.5002ZM20.1844 13.5065V22.484H22.2546V13.5065H20.1844ZM21.3036 14.5383L21.3186 14.5369L21.1204 12.4762L21.1054 12.4776L21.3036 14.5383ZM20.1844 12.2823C20.1844 12.5718 20.1793 13.0003 20.1696 13.4873L22.2394 13.5286C22.2493 13.0346 22.2546 12.5909 22.2546 12.2823H20.1844Z" fill="white" mask="url(#path-1-inside-1_677_2757)"/>
</g>
<line id="Line 1" x1="5.71289" y1="12.1153" x2="15.5065" y2="12.1153" stroke="#000" stroke-width="1.96669"/>
</g>
</g>
</svg>
