<svg viewBox="0 0 24 24" fill="none" xmlns="http://www.w3.org/2000/svg">
<g id="Question">
<rect width="24" height="24" rx="12" fill="currentColor"/>
<path id="question" d="M14.9915 9.07902C14.9915 8.57502 14.7515 8.21502 14.2715 7.99902C13.7915 7.77102 13.0295 7.65702 11.9855 7.65702C11.0135 7.65702 10.2515 7.78902 9.69945 8.05302C9.14745 8.30502 8.82945 8.77302 8.74545 9.45702H6.18945C6.22545 8.78502 6.38145 8.21502 6.65745 7.74702C6.94545 7.27902 7.33545 6.89502 7.82745 6.59502C8.33145 6.29502 8.93145 6.07902 9.62745 5.94702C10.3235 5.81502 11.1155 5.74902 12.0035 5.74902C13.8275 5.74902 15.2075 6.01902 16.1435 6.55902C17.0795 7.09902 17.5475 7.95702 17.5475 9.13302C17.5475 9.75702 17.4275 10.255 17.1875 10.627C16.9475 10.987 16.6475 11.281 16.2875 11.509C15.9275 11.737 15.5375 11.923 15.1175 12.067C14.6975 12.211 14.3075 12.367 13.9475 12.535C13.5875 12.703 13.2875 12.919 13.0475 13.183C12.8075 13.435 12.6875 13.789 12.6875 14.245V14.587H10.4555V14.227C10.4555 13.579 10.5635 13.057 10.7795 12.661C11.0075 12.265 11.2895 11.941 11.6255 11.689C11.9615 11.437 12.3275 11.239 12.7235 11.095C13.1195 10.939 13.4855 10.795 13.8215 10.663C14.1575 10.519 14.4335 10.357 14.6495 10.177C14.8775 9.99702 14.9915 9.75102 14.9915 9.43902V9.07902ZM10.1495 17.323C10.1495 16.867 10.2695 16.537 10.5095 16.333C10.7615 16.129 11.1275 16.027 11.6075 16.027C12.0995 16.027 12.4655 16.129 12.7055 16.333C12.9575 16.537 13.0835 16.867 13.0835 17.323C13.0835 18.175 12.5915 18.601 11.6075 18.601C10.6355 18.601 10.1495 18.175 10.1495 17.323Z" fill="white"/>
</g>
</svg>
