<svg width="45" height="45" viewBox="0 0 45 45" fill="none" xmlns="http://www.w3.org/2000/svg">
<rect x="0.0546875" y="0.535645" width="44" height="44" rx="16" fill="white"/>
<path d="M15.2812 14.0731C14.9573 15.0203 15.4626 16.0507 16.4097 16.3745L19.9351 17.58C20.4577 17.7587 21.0262 17.4799 21.2049 16.9574C21.3836 16.4348 21.1048 15.8663 20.5822 15.6876L18.5654 14.998C19.8087 14.4062 21.1999 14.0751 22.6698 14.0751C27.951 14.0751 32.2323 18.3564 32.2323 23.6376C32.2323 28.9188 27.951 33.2001 22.6698 33.2001C20.5598 33.2001 18.6121 32.5179 17.0312 31.3617C16.5854 31.0356 15.9598 31.1327 15.6337 31.5785C15.3077 32.0243 15.4048 32.65 15.8506 32.976C17.7625 34.3743 20.1212 35.2001 22.6698 35.2001C29.0556 35.2001 34.2323 30.0234 34.2323 23.6376C34.2323 17.2518 29.0556 12.0751 22.6698 12.0751C20.8894 12.0751 19.2017 12.4781 17.6942 13.1977L18.3791 11.1948C18.5578 10.6722 18.279 10.1037 17.7564 9.92503C17.2338 9.74634 16.6654 10.0251 16.4867 10.5477L15.2812 14.0731Z" fill="#2F2F37"/>
<path fill-rule="evenodd" clip-rule="evenodd" d="M17.4801 28.5731C16.3085 29.7447 14.409 29.7447 13.2375 28.5731L10.5974 25.933C9.42586 24.7615 9.42586 22.862 10.5974 21.6904L13.2375 19.0504C14.409 17.8788 16.3085 17.8788 17.4801 19.0504L20.1202 21.6904C21.2917 22.862 21.2917 24.7615 20.1202 25.9331L17.4801 28.5731ZM18.7059 24.5188L16.0659 27.1589C15.6754 27.5494 15.0422 27.5494 14.6517 27.1589L12.0116 24.5188C11.6211 24.1283 11.6211 23.4951 12.0116 23.1046L14.6517 20.4646C15.0422 20.0741 15.6754 20.0741 16.0659 20.4646L18.7059 23.1046C19.0965 23.4951 19.0965 24.1283 18.7059 24.5188Z" fill="#2F2F37"/>
</svg>
