<svg width="56" height="48" viewBox="0 0 56 48" fill="none" xmlns="http://www.w3.org/2000/svg">
<path fill-rule="evenodd" clip-rule="evenodd" transform="rotate(15) translate(4, -10)" d="M14.5635 39.2779C8.95001 36.7427 3.08871 34.0957 1.10241 26.6827C-2.61508 12.8089 10.669 2.05936 23.4186 10.6268L22.8816 22.6889L31.6048 26.8243L27.5922 36.6142L33.8723 47.074C30.163 45.7138 21.306 42.412 16.5297 40.1765C15.8822 39.8734 15.2246 39.5764 14.5635 39.2779ZM37.4983 45.3811C40.3209 41.959 45.5291 35.5408 48.098 31.7177C48.6093 30.9568 49.1563 30.1892 49.7126 29.4085C53.104 24.6493 56.8398 19.4067 54.9251 12.261C51.1824 -1.70716 34.1077 -4.31485 27.44 9.78592L26.9754 20.2249L36.7181 24.8436L32.032 36.2767L37.4983 45.3811Z" fill="currentColor"/>
</svg>
