<svg viewBox="0 0 80 80" fill="none" xmlns="http://www.w3.org/2000/svg">
<g id="&#208;&#156;&#208;&#162;&#208;&#161;_LOGO" clip-path="url(#clip0_360_14060)">
<path id="Vector" d="M80 0H0V80H80V0Z" fill="#FF0032"/>
<path id="Vector_2" d="M24.3413 6.15356L18.4609 18.3615L12.5824 6.15356H6.15985V24.6142H10.6607V11.4029L16.4097 22.563H20.512L26.263 11.4029V24.6142H30.7639V6.15356H24.3413Z" fill="white"/>
<path id="Vector_3" d="M53.2983 6.15356V9.8291H61.3371L61.3189 24.6101H65.8198L65.84 9.8291H73.8809V6.15356H53.2983Z" fill="white"/>
<path id="Vector_4" d="M69.3679 67.6908C69.2546 68.4271 68.9592 69.032 68.4859 69.4871C68.0388 69.918 67.432 70.2234 66.6815 70.3954C65.9391 70.5673 64.8528 70.6644 63.7018 70.6644C62.5508 70.6644 61.4524 70.5107 60.5624 70.2052C59.6986 69.9099 59.0149 69.3941 58.5294 68.6719C58.0419 67.9457 57.7951 66.8979 57.7951 65.5547V63.6674C57.7951 62.3242 58.0419 61.2763 58.5294 60.5501C59.0129 59.83 59.6966 59.3142 60.5603 59.0168C61.4504 58.7134 62.5063 58.5576 63.6998 58.5576C64.8933 58.5576 65.9371 58.6567 66.6795 58.8267C67.4279 58.9986 68.0368 59.3061 68.4839 59.7349C68.9572 60.1921 69.2526 60.7969 69.3658 61.5332H73.8687C73.7453 60.01 73.2255 58.7114 72.3253 57.6736C71.502 56.7249 70.3631 56.0311 68.9431 55.6083C67.5635 55.1976 65.751 54.9812 63.6998 54.9812C61.5434 54.9812 59.6703 55.2907 58.1349 55.9036C56.5753 56.5246 55.3656 57.5603 54.5363 58.9824C53.7413 60.3458 53.3246 62.1664 53.2983 64.3956V64.6019L53.539 64.61L53.2983 64.6181V64.8224C53.3266 67.0536 53.7433 68.8722 54.5363 70.2356C55.3656 71.6576 56.5753 72.6933 58.1349 73.3144C59.6703 73.9253 61.5434 74.2368 63.6998 74.2368C65.8562 74.2368 67.5635 74.0203 68.9431 73.6097C70.3631 73.1869 71.502 72.4931 72.3253 71.5444C73.2255 70.5066 73.7453 69.208 73.8687 67.6848H69.3638L69.3679 67.6908Z" fill="white"/>
</g>
<defs>
<clipPath id="clip0_360_14060">
<rect width="80" height="80" fill="white"/>
</clipPath>
</defs>
</svg>
