<svg viewBox="0 0 36 38" fill="none" xmlns="http://www.w3.org/2000/svg">
<g id="Icons">
<g id="Fire">
<mask id="path-1-inside-1_620_2707" fill="white">
<path fill-rule="evenodd" clip-rule="evenodd" d="M18.8248 0.977168L21.2978 12.9494L26.3406 7.54627C29.5283 11.0211 32.4497 15.4792 32.4497 20.1478C32.4497 20.235 32.449 20.3218 32.4477 20.4082C32.4496 20.5054 32.4506 20.6029 32.4506 20.7006C32.4506 28.5979 26.1166 34.9999 18.3033 34.9999C10.4901 34.9999 4.15614 28.5979 4.15614 20.7006C4.15614 20.62 4.1568 20.5396 4.15812 20.4593C4.15622 20.3561 4.15527 20.2522 4.15527 20.1478C4.15527 10.024 17.8927 0.889952 18.2935 0.625573C18.2957 0.624122 18.2973 0.622948 18.2986 0.622051C18.3005 0.620599 18.3015 0.619873 18.3025 0.619873C18.3035 0.619873 18.3045 0.620599 18.3064 0.622051C18.3076 0.622947 18.3092 0.624121 18.3114 0.625572C18.3525 0.652637 18.5333 0.772653 18.8248 0.977168Z"/>
</mask>
<path fill-rule="evenodd" clip-rule="evenodd" d="M18.8248 0.977168L21.2978 12.9494L26.3406 7.54627C29.5283 11.0211 32.4497 15.4792 32.4497 20.1478C32.4497 20.235 32.449 20.3218 32.4477 20.4082C32.4496 20.5054 32.4506 20.6029 32.4506 20.7006C32.4506 28.5979 26.1166 34.9999 18.3033 34.9999C10.4901 34.9999 4.15614 28.5979 4.15614 20.7006C4.15614 20.62 4.1568 20.5396 4.15812 20.4593C4.15622 20.3561 4.15527 20.2522 4.15527 20.1478C4.15527 10.024 17.8927 0.889952 18.2935 0.625573C18.2957 0.624122 18.2973 0.622948 18.2986 0.622051C18.3005 0.620599 18.3015 0.619873 18.3025 0.619873C18.3035 0.619873 18.3045 0.620599 18.3064 0.622051C18.3076 0.622947 18.3092 0.624121 18.3114 0.625572C18.3525 0.652637 18.5333 0.772653 18.8248 0.977168Z" fill="currentColor"/>
<path d="M21.2978 12.9494L19.82 13.2546L20.4102 16.1119L22.4009 13.979L21.2978 12.9494ZM18.8248 0.977168L20.3026 0.671914L20.1815 0.0856546L19.6914 -0.258151L18.8248 0.977168ZM26.3406 7.54627L27.4526 6.52619L26.3502 5.32444L25.2375 6.51665L26.3406 7.54627ZM32.4477 20.4082L30.9388 20.3846L30.9384 20.4114L30.9389 20.4382L32.4477 20.4082ZM32.4506 20.7006H33.9596H32.4506ZM18.3033 34.9999L18.3033 33.4909H18.3033V34.9999ZM4.15614 20.7006H2.64714H4.15614ZM4.15812 20.4593L5.66692 20.484L5.66734 20.4579L5.66686 20.4317L4.15812 20.4593ZM18.2935 0.625573L19.1244 1.88527L19.1244 1.88522L18.2935 0.625573ZM18.2986 0.622051L19.1938 1.83681L19.1941 1.83655L18.2986 0.622051ZM18.3064 0.622051L19.2022 -0.59234L19.2018 -0.592596L18.3064 0.622051ZM18.3114 0.625572L19.1423 -0.634125L19.1422 -0.634145L18.3114 0.625572ZM22.7756 12.6441L20.3026 0.671914L17.347 1.28242L19.82 13.2546L22.7756 12.6441ZM25.2375 6.51665L20.1946 11.9197L22.4009 13.979L27.4438 8.57589L25.2375 6.51665ZM33.9587 20.1478C33.9587 14.8893 30.7021 10.0684 27.4526 6.52619L25.2287 8.56635C28.3545 11.9738 30.9407 16.0691 30.9407 20.1478H33.9587ZM33.9565 20.4318C33.9579 20.3375 33.9587 20.2428 33.9587 20.1478H30.9407C30.9407 20.2272 30.9401 20.3061 30.9388 20.3846L33.9565 20.4318ZM33.9596 20.7006C33.9596 20.5929 33.9585 20.4855 33.9564 20.3782L30.9389 20.4382C30.9407 20.5254 30.9416 20.6129 30.9416 20.7006H33.9596ZM18.3033 36.5089C26.9652 36.5089 33.9596 29.416 33.9596 20.7006H30.9416C30.9415 27.7797 25.2681 33.4909 18.3033 33.4909L18.3033 36.5089ZM2.64714 20.7006C2.64714 29.416 9.64149 36.5089 18.3033 36.5089V33.4909C11.3386 33.4909 5.66514 27.7797 5.66515 20.7006H2.64714ZM2.64932 20.4347C2.64787 20.5231 2.64714 20.6118 2.64714 20.7006H5.66515C5.66515 20.6282 5.66574 20.5561 5.66692 20.484L2.64932 20.4347ZM2.64627 20.1478C2.64627 20.2614 2.64731 20.3745 2.64937 20.487L5.66686 20.4317C5.66514 20.3377 5.66427 20.2431 5.66427 20.1478H2.64627ZM17.4627 -0.634126C17.2232 -0.47617 13.5864 1.94263 9.99243 5.63722C6.46109 9.26745 2.64627 14.4569 2.64627 20.1478H5.66427C5.66427 15.7148 8.71816 11.2754 12.1557 7.7416C15.5307 4.27213 18.963 1.99169 19.1244 1.88527L17.4627 -0.634126ZM17.4033 -0.592704C17.4025 -0.592122 17.4111 -0.598479 17.4218 -0.606112C17.4333 -0.614295 17.4471 -0.623782 17.4627 -0.634072L19.1244 1.88522C19.1611 1.86105 19.1888 1.84046 19.1938 1.83681L17.4033 -0.592704ZM18.3025 -0.889128C17.909 -0.889128 17.6309 -0.736367 17.5341 -0.679246C17.4814 -0.648178 17.4422 -0.620612 17.4279 -0.610488C17.4191 -0.604277 17.4122 -0.599242 17.4088 -0.596724C17.4069 -0.595354 17.4054 -0.594238 17.4045 -0.593591C17.4041 -0.593254 17.4037 -0.592973 17.4034 -0.592794C17.4032 -0.592627 17.403 -0.592474 17.403 -0.592451L19.1941 1.83655C19.2214 1.81647 19.1495 1.87181 19.0677 1.92008C18.9721 1.97648 18.695 2.12887 18.3025 2.12887V-0.889128ZM19.2018 -0.592596C19.2018 -0.592619 19.2016 -0.592772 19.2014 -0.592939C19.2011 -0.593119 19.2007 -0.593399 19.2003 -0.593736C19.1994 -0.594382 19.1979 -0.595497 19.196 -0.596866C19.1926 -0.599381 19.1856 -0.604411 19.1769 -0.610614C19.1626 -0.620726 19.1234 -0.648263 19.0708 -0.679299C18.9742 -0.736287 18.696 -0.889128 18.3025 -0.889128V2.12887C17.9099 2.12887 17.6328 1.9764 17.5374 1.92013C17.4556 1.87191 17.3838 1.81664 17.411 1.8367L19.2018 -0.592596ZM19.1422 -0.634145C19.1579 -0.623825 19.1716 -0.614293 19.1832 -0.60604C19.1941 -0.598312 19.2027 -0.591912 19.2022 -0.59234L17.4107 1.83644C17.416 1.84039 17.4439 1.86103 17.4807 1.88529L19.1422 -0.634145ZM19.6914 -0.258151C19.3871 -0.47168 19.1943 -0.599825 19.1423 -0.634125L17.4806 1.88527C17.5107 1.9051 17.6795 2.01699 17.9581 2.21249L19.6914 -0.258151Z" fill="currentColor" mask="url(#path-1-inside-1_620_2707)"/>
</g>
</g>
</svg>
