<svg viewBox="0 0 36 36" fill="none" xmlns="http://www.w3.org/2000/svg">
<g id="Icons">
<path id="Heart" d="M17.5156 10.4034L18 11.087L18.4844 10.4034C21.5282 6.10758 25.7787 4.96739 29.2305 5.89438C32.6946 6.82463 35.4063 9.84011 35.4063 14.0341C35.4063 16.3348 34.4158 18.0457 33.0035 19.5091C31.975 20.5748 30.7685 21.4695 29.5663 22.361C29.0793 22.722 28.5931 23.0826 28.1197 23.4538C26.5585 24.6779 23.9569 26.4349 21.7298 27.8953C20.6195 28.6233 19.6078 29.274 18.8736 29.7427C18.5065 29.9771 18.209 30.1658 18.0033 30.296L17.999 30.2986L17.9968 30.2972C17.7919 30.1684 17.4953 29.9815 17.1287 29.7492C16.3956 29.2846 15.3833 28.6387 14.2666 27.9138C12.0279 26.4607 9.38727 24.7015 7.72926 23.4475C7.36088 23.1688 6.99008 22.8959 6.62127 22.6244C5.26947 21.6294 3.94433 20.654 2.86267 19.49C1.51364 18.0382 0.593679 16.3386 0.593679 14.0341C0.593679 9.8414 3.30531 6.82585 6.76946 5.89528C10.2214 4.96799 14.4718 6.10761 17.5156 10.4034Z" fill="currentColor" stroke="currentColor" stroke-width="1.18736"/>
</g>
</svg>
