<svg viewBox="0 0 36 36" fill="none" xmlns="http://www.w3.org/2000/svg">
<g id="Icons">
<path id="Star" fill-rule="evenodd" clip-rule="evenodd" d="M2.59084 15.125L8.18893 12.7259C9.31395 12.2438 9.87646 12.0027 10.3065 11.5954C10.3316 11.5716 10.3563 11.5475 10.3806 11.523C10.7973 11.1026 11.0436 10.5532 11.536 9.45444C14.0315 3.88647 15.2793 1.10248 17.337 1.0039C17.4456 0.998699 17.5544 0.998699 17.663 1.0039C19.7207 1.10248 20.9685 3.88647 23.464 9.45443C23.9564 10.5532 24.2027 11.1026 24.6194 11.523C24.6437 11.5475 24.6684 11.5716 24.6935 11.5954C25.1235 12.0027 25.6861 12.2438 26.8111 12.7259L32.4092 15.125C34.5542 16.0443 34.5227 19.0255 32.3587 19.9014L26.9145 22.1049C25.7484 22.5769 25.1654 22.8129 24.7195 23.2253C24.6856 23.2566 24.6523 23.2887 24.6198 23.3214C24.1921 23.7518 23.9434 24.3181 23.4462 25.4507C20.9829 31.0614 19.7512 33.8667 17.7112 33.9934C17.5706 34.0022 17.4295 34.0022 17.2888 33.9934C15.2488 33.8667 14.0172 31.0614 11.5538 25.4507C11.0566 24.3181 10.8079 23.7518 10.3802 23.3214C10.3477 23.2887 10.3144 23.2566 10.2805 23.2253C9.8346 22.8129 9.25156 22.5769 8.08548 22.1049L2.64132 19.9014C0.477256 19.0255 0.445749 16.0443 2.59084 15.125Z" fill="currentColor"/>
</g>
</svg>
